<svg width="144" height="144" viewBox="0 0 144 144" fill="none" xmlns="http://www.w3.org/2000/svg">
<rect width="144" height="144" rx="6" fill="white"/>
<path d="M112.115 60.956C112.115 67.38 111.147 73.056 109.211 77.984C107.363 82.912 104.723 87.048 101.291 90.392C104.195 94.88 105.647 99.236 105.647 103.46C105.647 107.068 104.239 110.06 101.423 112.436C98.6946 114.812 95.5706 116 92.0506 116C90.0266 116 88.1786 115.692 86.5066 115.076C84.8346 114.46 83.0306 113.404 81.0946 111.908C79.4226 110.588 77.8386 108.784 76.3426 106.496C74.8466 104.208 73.6586 101.832 72.7786 99.368C69.8746 99.016 66.9706 98.268 64.0666 97.124C64.5946 99.94 64.8586 102.096 64.8586 103.592C64.8586 111.952 60.5026 116.132 51.7906 116.132C44.4866 116.132 39.3386 111.864 36.3466 103.328C33.3546 94.792 31.8586 84.364 31.8586 72.044C31.8586 63.684 33.3546 55.852 36.3466 48.548C39.4266 41.156 44.0906 35.216 50.3386 30.728C56.5866 26.152 64.1986 23.864 73.1746 23.864C80.3906 23.864 86.9466 25.404 92.8426 28.484C98.7386 31.476 103.403 35.788 106.835 41.42C110.355 47.052 112.115 53.564 112.115 60.956ZM62.7466 67.16C62.7466 70.152 63.9346 72.792 66.3106 75.08C68.6866 77.28 71.4146 78.38 74.4946 78.38C77.6626 78.38 80.3906 77.28 82.6786 75.08C85.0546 72.792 86.2426 70.152 86.2426 67.16C86.2426 64.08 85.0546 61.44 82.6786 59.24C80.3906 56.952 77.6626 55.808 74.4946 55.808C71.4146 55.808 68.6866 56.952 66.3106 59.24C63.9346 61.528 62.7466 64.168 62.7466 67.16Z" fill="url(#paint0_linear_104_7)"/>
<defs>
<linearGradient id="paint0_linear_104_7" x1="72" y1="0" x2="72" y2="144" gradientUnits="userSpaceOnUse">
<stop offset="0.254321" stop-color="#3BD0FF"/>
<stop offset="1" stop-color="#4260DA"/>
</linearGradient>
</defs>
</svg>
