<svg width="192" height="192" viewBox="0 0 192 192" fill="none" xmlns="http://www.w3.org/2000/svg">
<g clip-path="url(#clip0_208_3)">
<rect width="192" height="192" fill="url(#paint0_linear_208_3)"/>
<g filter="url(#filter0_d_208_3)">
<path d="M93.3879 150.3C87.3879 150.3 84.3879 148.7 84.3879 145.5V64.65H60.5379C57.5379 64.65 56.0379 62.15 56.0379 57.15V52.5C56.0379 47.5 57.5379 45 60.5379 45H131.488C134.488 45 135.988 47.5 135.988 52.5V57.15C135.988 62.15 134.488 64.65 131.488 64.65H107.638V145.5C107.638 148.7 104.638 150.3 98.6379 150.3H93.3879Z" fill="white"/>
</g>
</g>
<defs>
<filter id="filter0_d_208_3" x="36.0379" y="35" width="119.95" height="145.3" filterUnits="userSpaceOnUse" color-interpolation-filters="sRGB">
<feFlood flood-opacity="0" result="BackgroundImageFix"/>
<feColorMatrix in="SourceAlpha" type="matrix" values="0 0 0 0 0 0 0 0 0 0 0 0 0 0 0 0 0 0 127 0" result="hardAlpha"/>
<feOffset dy="10"/>
<feGaussianBlur stdDeviation="10"/>
<feComposite in2="hardAlpha" operator="out"/>
<feColorMatrix type="matrix" values="0 0 0 0 0 0 0 0 0 0 0 0 0 0 0 0 0 0 0.3 0"/>
<feBlend mode="normal" in2="BackgroundImageFix" result="effect1_dropShadow_208_3"/>
<feBlend mode="normal" in="SourceGraphic" in2="effect1_dropShadow_208_3" result="shape"/>
</filter>
<linearGradient id="paint0_linear_208_3" x1="96" y1="0" x2="96" y2="192" gradientUnits="userSpaceOnUse">
<stop stop-color="#7AC0FF"/>
<stop offset="1" stop-color="#1665AB"/>
</linearGradient>
<clipPath id="clip0_208_3">
<rect width="192" height="192" fill="white"/>
</clipPath>
</defs>
</svg>
